<?xml version="1.0" encoding="UTF-8" standalone="no"?>
<!DOCTYPE svg PUBLIC "-//W3C//DTD SVG 1.1//EN" "http://www.w3.org/Graphics/SVG/1.1/DTD/svg11.dtd">
<!-- Created with Vectornator (http://vectornator.io/) -->
<svg height="100%" stroke-miterlimit="10" style="fill-rule:nonzero;clip-rule:evenodd;stroke-linecap:round;stroke-linejoin:round;" version="1.1" viewBox="0 0 420.67 343.32" width="100%" xml:space="preserve" xmlns="http://www.w3.org/2000/svg" xmlns:vectornator="http://vectornator.io" xmlns:xlink="http://www.w3.org/1999/xlink">
<defs/>
<g id="layer1" vectornator:layerName="layer1">
<g opacity="1">
<path d="M134.193 294.573C129.101 308.831 117.069 307.141 104.768 301.685C87.3674 293.965 64.2241 258.724 61.9292 242.096C59.823 226.835 65.2791 214.882 77.1608 213.328" fill="#ffffff" fill-rule="nonzero" opacity="1" stroke="#000000" stroke-linecap="round" stroke-linejoin="round" stroke-width="4.99998"/>
<path d="M76.527 88.3313C57.9942 92.3518 68.2757 121.705 83.8819 150.369C89.9416 161.499 72.7991 206.941 83.3626 235.882C90.2343 254.711 116.049 289.095 134.236 293.834C165.377 301.947 192.737 296.637 220.087 282.087C229.783 276.929 239.682 269.591 247.114 262.778C271.517 240.405 352.353 212.658 357.51 205.572C371.842 185.884 343.972 173.402 328.643 178.518C321.219 180.995 264.611 192.769 272.153 186.453C290.682 170.935 314.854 154.489 338.566 140.262C374.05 118.973 330.003 81.0419 296.982 101.317C281.513 110.814 267.481 116.926 233.457 138.932C246.128 120.108 263.308 91.8131 277.685 75.3355C301.392 48.1636 252.761 21.9972 224.473 55.8283C205.209 78.868 175.041 124.177 133.665 154.461C134.021 128.554 132.429 76.2012 76.5296 88.3271L76.527 88.3313Z" fill="#ffffff" fill-rule="nonzero" opacity="1" stroke="#000000" stroke-linecap="round" stroke-linejoin="round" stroke-width="4.99998"/>
<path d="M231.162 134.696C214.434 156.513 210.839 171.537 208.197 178.185C218.312 164.22 220.506 160.409 232.424 146.328C234.444 143.94 237.195 141.49 241.002 139.056L231.162 134.696Z" fill="#000000" fill-rule="nonzero" opacity="1" stroke="none"/>
<path d="M269.336 183.223C256.985 193.581 244.578 209.035 238.988 221.341C245.646 215.586 257.003 205.598 266.952 196.654C269.65 194.228 272.653 192.721 277.805 192.369C274.356 189.929 271.974 186.465 269.335 183.224L269.336 183.223Z" fill="#000000" fill-rule="nonzero" opacity="1" stroke="none"/>
<path d="M133.588 268.346C154.83 262.098 159.319 258.292 169.043 253.723" fill="none" opacity="1" stroke="#000000" stroke-linecap="round" stroke-linejoin="round" stroke-width="4.99998"/>
<path d="M119.965 253.889C141.036 241.406 149.99 233.418 163.268 223.825" fill="none" opacity="1" stroke="#000000" stroke-linecap="round" stroke-linejoin="round" stroke-width="4.99998"/>
<path d="M104.227 236.154C117.445 225.701 122.709 219.542 130.437 212.053" fill="none" opacity="1" stroke="#000000" stroke-linecap="round" stroke-linejoin="round" stroke-width="4.99998"/>
</g>
</g>
</svg>
