<?xml version="1.0" encoding="UTF-8" standalone="no"?>
<!DOCTYPE svg PUBLIC "-//W3C//DTD SVG 1.1//EN" "http://www.w3.org/Graphics/SVG/1.1/DTD/svg11.dtd">
<!-- Created with Vectornator (http://vectornator.io/) -->
<svg height="100%" stroke-miterlimit="10" style="fill-rule:nonzero;clip-rule:evenodd;stroke-linecap:round;stroke-linejoin:round;" version="1.1" viewBox="0 0 420.67 343.32" width="100%" xml:space="preserve" xmlns="http://www.w3.org/2000/svg" xmlns:vectornator="http://vectornator.io" xmlns:xlink="http://www.w3.org/1999/xlink">
<defs/>
<g id="layer1" vectornator:layerName="layer1">
<g opacity="1">
<path d="M328.411 219.907C346.888 227.486 355.782 214.144 361.268 197.203C369.022 173.237 354.708 119.317 340.386 102.37C327.14 86.8314 310.742 81.6258 298.542 91.9936" fill="#ffffff" fill-rule="nonzero" opacity="1" stroke="#000000" stroke-linecap="round" stroke-linejoin="round" stroke-width="4.99983"/>
<path d="M174.396 51.89C217.324 42.5743 291.713 72.3691 315.448 117.994C327.442 141.597 338.915 197.206 327.469 219.325C308.08 257.178 278.551 279.461 240.073 293.589C226.444 298.578 210.555 301.835 197.186 303.161C142.626 309.021 99.6317 298.396 99.9849 260.458C53.8351 256.297 53.472 186.134 87.2987 180.368C42.4049 151.738 70.8941 95.0364 121.188 108.394C126.042 99.6754 129.829 61.5762 174.396 51.89Z" fill="#ffffff" fill-rule="nonzero" opacity="1" stroke="#000000" stroke-linecap="round" stroke-linejoin="round" stroke-width="4.99983"/>
<path d="M89.82 185.851C125.798 191.194 139.348 184.565 148.852 183.4C126.115 180.628 120.281 180.531 96.3484 175.79C92.2778 174.979 88.0892 173.727 83.1238 170.223L83.3475 187.498C82.5365 187.747 87.2295 185.863 89.8187 185.851L89.82 185.851Z" fill="#000000" fill-rule="nonzero" opacity="1" stroke="none"/>
<path d="M96.4271 265.616C117.757 266.469 144.078 265.1 160.483 258.024C148.747 257.728 118.457 254.945 100.777 254.852C100.777 254.816 100.815 254.881 96.426 265.616L96.4271 265.616Z" fill="#000000" fill-rule="nonzero" opacity="1" stroke="none"/>
<path d="M303.095 196.159C278.125 211.587 270.375 212.661 257.398 218.193" fill="none" opacity="1" stroke="#000000" stroke-linecap="round" stroke-linejoin="round" stroke-width="4.99983"/>
<path d="M300.872 169.969C269.899 179.731 254.057 181.516 233.008 186.114" fill="none" opacity="1" stroke="#000000" stroke-linecap="round" stroke-linejoin="round" stroke-width="4.99983"/>
<path d="M297.283 138.801C275.259 142.613 264.469 142.376 250.477 143.349" fill="none" opacity="1" stroke="#000000" stroke-linecap="round" stroke-linejoin="round" stroke-width="4.99983"/>
<path d="M117.503 102.534C165.513 105.84 181.464 88.8692 203.411 75.7655C181.415 93.8542 176.237 114.478 120.683 114.061C120.683 114.061 117.503 102.534 117.503 102.534Z" fill="#000000" fill-rule="nonzero" opacity="1" stroke="none"/>
</g>
</g>
</svg>
