<?xml version="1.0" encoding="UTF-8" standalone="no"?>
<!DOCTYPE svg PUBLIC "-//W3C//DTD SVG 1.1//EN" "http://www.w3.org/Graphics/SVG/1.1/DTD/svg11.dtd">
<!-- Created with Vectornator (http://vectornator.io/) -->
<svg height="100%" stroke-miterlimit="10" style="fill-rule:nonzero;clip-rule:evenodd;stroke-linecap:round;stroke-linejoin:round;" version="1.1" viewBox="0 0 420.67 343.32" width="100%" xml:space="preserve" xmlns="http://www.w3.org/2000/svg" xmlns:vectornator="http://vectornator.io" xmlns:xlink="http://www.w3.org/1999/xlink">
<defs/>
<g id="layer1" vectornator:layerName="layer1">
<g opacity="1">
<path d="M81.0886 168.532C66.5245 170.881 62.3688 159.789 61.2683 146.681C59.7167 128.14 79.0712 91.7589 92.2199 81.9741C104.359 73.0223 117.029 72.0325 124.063 81.5398" fill="#ffffff" fill-rule="nonzero" opacity="1" stroke="#000000" stroke-linecap="round" stroke-linejoin="round" stroke-width="4.99993"/>
<path d="M220.1 73.548C190.786 59.6355 132.272 68.5707 107.534 97.4022C94.9412 112.365 77.3467 150.438 81.8641 168.272C89.4523 198.758 106.95 219.747 132.254 236.373C141.22 242.252 152.101 247.264 161.495 250.463C196.047 261.735 226.347 243.949 238.588 236.076C260.598 244.681 286.047 257.684 309.38 271.338C344.279 291.761 356.123 236.196 323.234 217.399C307.837 208.6 296.002 199.436 261.168 180.596C283.26 182.628 315.582 184.073 336.449 188.66C370.879 196.234 370.478 142.256 328.191 133.884C299.395 128.184 276.369 128.433 248.882 123.131C246.855 116.044 250.531 88.0023 220.1 73.548Z" fill="#ffffff" fill-rule="nonzero" opacity="1" stroke="#000000" stroke-linecap="round" stroke-linejoin="round" stroke-width="4.99993"/>
<path d="M263.667 176.617C237.114 172.519 222.554 176.49 215.528 177.311C232.312 179.454 236.621 179.551 254.278 183.154C257.282 183.77 260.668 184.976 264.548 187.1C264.548 187.1 263.667 176.617 263.667 176.617Z" fill="#000000" fill-rule="nonzero" opacity="1" stroke="none"/>
<path d="M239.983 232.122C225.294 226.389 206.229 223.01 193.068 224C209.106 229.883 221.774 234.513 237.182 239.761C237.198 239.721 238.429 235.898 239.976 232.119L239.983 232.122Z" fill="#000000" fill-rule="nonzero" opacity="1" stroke="none"/>
<path d="M103.288 155.703C118.658 170.995 124.052 173.07 132.457 179.23" fill="none" opacity="1" stroke="#000000" stroke-linecap="round" stroke-linejoin="round" stroke-width="4.99993"/>
<path d="M109.287 137.238C129.927 149.463 141.022 153.408 155.391 160.252" fill="none" opacity="1" stroke="#000000" stroke-linecap="round" stroke-linejoin="round" stroke-width="4.99993"/>
<path d="M117.105 115.42C132.307 121.863 140.108 123.505 150.009 126.555" fill="none" opacity="1" stroke="#000000" stroke-linecap="round" stroke-linejoin="round" stroke-width="4.99993"/>
<path d="M252.517 119.535C217.427 113.848 208.804 98.9606 195.218 85.8478C208.002 102.555 208.262 118.259 248.293 127.292C248.293 127.292 252.517 119.535 252.517 119.535Z" fill="#000000" fill-rule="nonzero" opacity="1" stroke="none"/>
</g>
</g>
</svg>
